<svg width="102" height="28" viewBox="0 0 102 28" fill="none" xmlns="http://www.w3.org/2000/svg">
<path d="M10.7727 12H9.36364C9.2803 11.5947 9.13447 11.2386 8.92614 10.9318C8.72159 10.625 8.47159 10.3674 8.17614 10.1591C7.88447 9.94697 7.56061 9.78788 7.20455 9.68182C6.84849 9.57576 6.47727 9.52273 6.09091 9.52273C5.38636 9.52273 4.74811 9.70076 4.17614 10.0568C3.60795 10.4129 3.1553 10.9375 2.81818 11.6307C2.48485 12.3239 2.31818 13.1742 2.31818 14.1818C2.31818 15.1894 2.48485 16.0398 2.81818 16.733C3.1553 17.4261 3.60795 17.9508 4.17614 18.3068C4.74811 18.6629 5.38636 18.8409 6.09091 18.8409C6.47727 18.8409 6.84849 18.7879 7.20455 18.6818C7.56061 18.5758 7.88447 18.4186 8.17614 18.2102C8.47159 17.9981 8.72159 17.7386 8.92614 17.4318C9.13447 17.1212 9.2803 16.7652 9.36364 16.3636H10.7727C10.6667 16.9583 10.4735 17.4905 10.1932 17.9602C9.91288 18.4299 9.56439 18.8295 9.14773 19.1591C8.73106 19.4848 8.26326 19.733 7.74432 19.9034C7.22917 20.0739 6.67803 20.1591 6.09091 20.1591C5.09849 20.1591 4.21591 19.9167 3.44318 19.4318C2.67045 18.947 2.0625 18.2576 1.61932 17.3636C1.17614 16.4697 0.954545 15.4091 0.954545 14.1818C0.954545 12.9545 1.17614 11.8939 1.61932 11C2.0625 10.1061 2.67045 9.41667 3.44318 8.93182C4.21591 8.44697 5.09849 8.20455 6.09091 8.20455C6.67803 8.20455 7.22917 8.28977 7.74432 8.46023C8.26326 8.63068 8.73106 8.88068 9.14773 9.21023C9.56439 9.53598 9.91288 9.93371 10.1932 10.4034C10.4735 10.8693 10.6667 11.4015 10.7727 12ZM16.1861 20.2045C15.633 20.2045 15.1312 20.1004 14.6804 19.892C14.2296 19.6799 13.8717 19.375 13.6065 18.9773C13.3414 18.5758 13.2088 18.0909 13.2088 17.5227C13.2088 17.0227 13.3073 16.6174 13.5043 16.3068C13.7012 15.9924 13.9645 15.7462 14.294 15.5682C14.6236 15.3902 14.9872 15.2576 15.3849 15.1705C15.7865 15.0795 16.1899 15.0076 16.5952 14.9545C17.1255 14.8864 17.5554 14.8352 17.8849 14.8011C18.2183 14.7633 18.4607 14.7008 18.6122 14.6136C18.7675 14.5265 18.8452 14.375 18.8452 14.1591V14.1136C18.8452 13.553 18.6918 13.1174 18.3849 12.8068C18.0819 12.4962 17.6217 12.3409 17.0043 12.3409C16.3641 12.3409 15.8622 12.4811 15.4986 12.7614C15.1349 13.0417 14.8793 13.3409 14.7315 13.6591L13.4588 13.2045C13.6861 12.6742 13.9891 12.2614 14.3679 11.9659C14.7505 11.6667 15.1671 11.4583 15.6179 11.3409C16.0724 11.2197 16.5194 11.1591 16.9588 11.1591C17.2391 11.1591 17.5611 11.1932 17.9247 11.2614C18.2921 11.3258 18.6463 11.4602 18.9872 11.6648C19.3319 11.8693 19.6179 12.178 19.8452 12.5909C20.0724 13.0038 20.1861 13.5568 20.1861 14.25V20H18.8452V18.8182H18.777C18.6861 19.0076 18.5346 19.2102 18.3224 19.4261C18.1103 19.642 17.8281 19.8258 17.4759 19.9773C17.1236 20.1288 16.6937 20.2045 16.1861 20.2045ZM16.3906 19C16.9209 19 17.3679 18.8958 17.7315 18.6875C18.099 18.4792 18.3755 18.2102 18.5611 17.8807C18.7505 17.5511 18.8452 17.2045 18.8452 16.8409V15.6136C18.7884 15.6818 18.6634 15.7443 18.4702 15.8011C18.2808 15.8542 18.0611 15.9015 17.8111 15.9432C17.5649 15.9811 17.3243 16.0152 17.0895 16.0455C16.8584 16.072 16.6709 16.0947 16.527 16.1136C16.1785 16.1591 15.8527 16.233 15.5497 16.3352C15.2505 16.4337 15.008 16.5833 14.8224 16.7841C14.6406 16.9811 14.5497 17.25 14.5497 17.5909C14.5497 18.0568 14.7221 18.4091 15.0668 18.6477C15.4152 18.8826 15.8565 19 16.3906 19ZM26.679 20.1818C25.9517 20.1818 25.3097 19.9981 24.7528 19.6307C24.196 19.2595 23.7604 18.7367 23.446 18.0625C23.1316 17.3845 22.9744 16.5833 22.9744 15.6591C22.9744 14.7424 23.1316 13.947 23.446 13.2727C23.7604 12.5985 24.1979 12.0777 24.7585 11.7102C25.3191 11.3428 25.9669 11.1591 26.7017 11.1591C27.2699 11.1591 27.7188 11.2538 28.0483 11.4432C28.3816 11.6288 28.6354 11.8409 28.8097 12.0795C28.9877 12.3144 29.1259 12.5076 29.2244 12.6591H29.3381V8.36364H30.679V20H29.3835V18.6591H29.2244C29.1259 18.8182 28.9858 19.0189 28.804 19.2614C28.6222 19.5 28.3627 19.714 28.0256 19.9034C27.6884 20.089 27.2396 20.1818 26.679 20.1818ZM26.8608 18.9773C27.3987 18.9773 27.8532 18.8371 28.2244 18.5568C28.5956 18.2727 28.8778 17.8807 29.071 17.3807C29.2642 16.8769 29.3608 16.2955 29.3608 15.6364C29.3608 14.9848 29.2661 14.4148 29.0767 13.9261C28.8873 13.4337 28.607 13.0511 28.2358 12.7784C27.8646 12.5019 27.4063 12.3636 26.8608 12.3636C26.2926 12.3636 25.8191 12.5095 25.4403 12.8011C25.0653 13.089 24.7831 13.4811 24.5938 13.9773C24.4081 14.4697 24.3153 15.0227 24.3153 15.6364C24.3153 16.2576 24.41 16.822 24.5994 17.3295C24.7926 17.8333 25.0767 18.2348 25.4517 18.5341C25.8305 18.8295 26.3002 18.9773 26.8608 18.9773ZM36.6392 20.2045C36.0862 20.2045 35.5843 20.1004 35.1335 19.892C34.6828 19.6799 34.3248 19.375 34.0597 18.9773C33.7945 18.5758 33.6619 18.0909 33.6619 17.5227C33.6619 17.0227 33.7604 16.6174 33.9574 16.3068C34.1544 15.9924 34.4176 15.7462 34.7472 15.5682C35.0767 15.3902 35.4403 15.2576 35.8381 15.1705C36.2396 15.0795 36.643 15.0076 37.0483 14.9545C37.5786 14.8864 38.0085 14.8352 38.3381 14.8011C38.6714 14.7633 38.9138 14.7008 39.0653 14.6136C39.2206 14.5265 39.2983 14.375 39.2983 14.1591V14.1136C39.2983 13.553 39.1449 13.1174 38.8381 12.8068C38.535 12.4962 38.0748 12.3409 37.4574 12.3409C36.8172 12.3409 36.3153 12.4811 35.9517 12.7614C35.5881 13.0417 35.3324 13.3409 35.1847 13.6591L33.9119 13.2045C34.1392 12.6742 34.4422 12.2614 34.821 11.9659C35.2036 11.6667 35.6203 11.4583 36.071 11.3409C36.5256 11.2197 36.9725 11.1591 37.4119 11.1591C37.6922 11.1591 38.0142 11.1932 38.3778 11.2614C38.7453 11.3258 39.0994 11.4602 39.4403 11.6648C39.785 11.8693 40.071 12.178 40.2983 12.5909C40.5256 13.0038 40.6392 13.5568 40.6392 14.25V20H39.2983V18.8182H39.2301C39.1392 19.0076 38.9877 19.2102 38.7756 19.4261C38.5634 19.642 38.2813 19.8258 37.929 19.9773C37.5767 20.1288 37.1468 20.2045 36.6392 20.2045ZM36.8438 19C37.3741 19 37.821 18.8958 38.1847 18.6875C38.5521 18.4792 38.8286 18.2102 39.0142 17.8807C39.2036 17.5511 39.2983 17.2045 39.2983 16.8409V15.6136C39.2415 15.6818 39.1165 15.7443 38.9233 15.8011C38.7339 15.8542 38.5142 15.9015 38.2642 15.9432C38.018 15.9811 37.7775 16.0152 37.5426 16.0455C37.3116 16.072 37.1241 16.0947 36.9801 16.1136C36.6316 16.1591 36.3059 16.233 36.0028 16.3352C35.7036 16.4337 35.4612 16.5833 35.2756 16.7841C35.0938 16.9811 35.0028 17.25 35.0028 17.5909C35.0028 18.0568 35.1752 18.4091 35.5199 18.6477C35.8684 18.8826 36.3097 19 36.8438 19ZM50.0185 13.2273L48.8139 13.5682C48.7382 13.3674 48.6264 13.1723 48.4787 12.983C48.3348 12.7898 48.1378 12.6307 47.8878 12.5057C47.6378 12.3807 47.3177 12.3182 46.9276 12.3182C46.3935 12.3182 45.9484 12.4413 45.5923 12.6875C45.2401 12.9299 45.0639 13.2386 45.0639 13.6136C45.0639 13.947 45.1851 14.2102 45.4276 14.4034C45.67 14.5966 46.0488 14.7576 46.5639 14.8864L47.8594 15.2045C48.6397 15.3939 49.2211 15.6837 49.6037 16.0739C49.9863 16.4602 50.1776 16.9583 50.1776 17.5682C50.1776 18.0682 50.0336 18.5152 49.7457 18.9091C49.4616 19.303 49.0639 19.6136 48.5526 19.8409C48.0412 20.0682 47.4465 20.1818 46.7685 20.1818C45.8783 20.1818 45.1416 19.9886 44.5582 19.6023C43.9749 19.2159 43.6056 18.6515 43.4503 17.9091L44.723 17.5909C44.8442 18.0606 45.0734 18.4129 45.4105 18.6477C45.7514 18.8826 46.1965 19 46.7457 19C47.3707 19 47.867 18.8674 48.2344 18.6023C48.6056 18.3333 48.7912 18.0114 48.7912 17.6364C48.7912 17.3333 48.6851 17.0795 48.473 16.875C48.2609 16.6667 47.9351 16.5114 47.4957 16.4091L46.0412 16.0682C45.242 15.8788 44.6548 15.5852 44.2798 15.1875C43.9086 14.786 43.723 14.2841 43.723 13.6818C43.723 13.1894 43.8613 12.7538 44.1378 12.375C44.4181 11.9962 44.7988 11.6989 45.2798 11.483C45.7647 11.267 46.3139 11.1591 46.9276 11.1591C47.7912 11.1591 48.4692 11.3485 48.9616 11.7273C49.4579 12.1061 49.8101 12.6061 50.0185 13.2273ZM56.7415 11.2727V12.4091H52.2188V11.2727H56.7415ZM53.5369 9.18182H54.8778V17.5C54.8778 17.8788 54.9328 18.1629 55.0426 18.3523C55.1563 18.5379 55.3002 18.6629 55.4744 18.7273C55.6525 18.7879 55.84 18.8182 56.0369 18.8182C56.1847 18.8182 56.3059 18.8106 56.4006 18.7955C56.4953 18.7765 56.571 18.7614 56.6278 18.75L56.9006 19.9545C56.8097 19.9886 56.6828 20.0227 56.5199 20.0568C56.357 20.0947 56.1506 20.1136 55.9006 20.1136C55.5218 20.1136 55.1506 20.0322 54.7869 19.8693C54.4271 19.7064 54.1278 19.4583 53.8892 19.125C53.6544 18.7917 53.5369 18.3712 53.5369 17.8636V9.18182ZM59.5085 20V11.2727H60.804V12.5909H60.8949C61.054 12.1591 61.3419 11.8087 61.7585 11.5398C62.1752 11.2708 62.6449 11.1364 63.1676 11.1364C63.2661 11.1364 63.3892 11.1383 63.5369 11.142C63.6847 11.1458 63.7964 11.1515 63.8722 11.1591V12.5227C63.8267 12.5114 63.7225 12.4943 63.5597 12.4716C63.4006 12.4451 63.232 12.4318 63.054 12.4318C62.6297 12.4318 62.2509 12.5208 61.9176 12.6989C61.5881 12.8731 61.3267 13.1155 61.1335 13.4261C60.9441 13.733 60.8494 14.0833 60.8494 14.4773V20H59.5085ZM69.6051 20.1818C68.7642 20.1818 68.0388 19.9962 67.429 19.625C66.8229 19.25 66.3551 18.7273 66.0256 18.0568C65.6998 17.3826 65.5369 16.5985 65.5369 15.7045C65.5369 14.8106 65.6998 14.0227 66.0256 13.3409C66.3551 12.6553 66.8134 12.1212 67.4006 11.7386C67.9915 11.3523 68.6809 11.1591 69.4688 11.1591C69.9233 11.1591 70.3722 11.2348 70.8153 11.3864C71.2585 11.5379 71.6619 11.7841 72.0256 12.125C72.3892 12.4621 72.679 12.9091 72.8949 13.4659C73.1108 14.0227 73.2188 14.7083 73.2188 15.5227V16.0909H66.4915V14.9318H71.8551C71.8551 14.4394 71.7566 14 71.5597 13.6136C71.3665 13.2273 71.09 12.9223 70.7301 12.6989C70.3741 12.4754 69.9536 12.3636 69.4688 12.3636C68.9347 12.3636 68.4725 12.4962 68.0824 12.7614C67.696 13.0227 67.3987 13.3636 67.1903 13.7841C66.982 14.2045 66.8778 14.6553 66.8778 15.1364V15.9091C66.8778 16.5682 66.9915 17.1269 67.2188 17.5852C67.4498 18.0398 67.7699 18.3864 68.179 18.625C68.5881 18.8598 69.0634 18.9773 69.6051 18.9773C69.9574 18.9773 70.2756 18.928 70.5597 18.8295C70.8475 18.7273 71.0956 18.5758 71.304 18.375C71.5123 18.1705 71.6733 17.9167 71.7869 17.6136L73.0824 17.9773C72.946 18.4167 72.7169 18.803 72.3949 19.1364C72.0729 19.4659 71.6752 19.7235 71.2017 19.9091C70.7282 20.0909 70.196 20.1818 69.6051 20.1818ZM81.0085 14.3864V15.6364H75.9176V14.3864H81.0085ZM90.2997 13.2273L89.0952 13.5682C89.0194 13.3674 88.9077 13.1723 88.7599 12.983C88.616 12.7898 88.419 12.6307 88.169 12.5057C87.919 12.3807 87.599 12.3182 87.2088 12.3182C86.6747 12.3182 86.2296 12.4413 85.8736 12.6875C85.5213 12.9299 85.3452 13.2386 85.3452 13.6136C85.3452 13.947 85.4664 14.2102 85.7088 14.4034C85.9512 14.5966 86.33 14.7576 86.8452 14.8864L88.1406 15.2045C88.9209 15.3939 89.5024 15.6837 89.8849 16.0739C90.2675 16.4602 90.4588 16.9583 90.4588 17.5682C90.4588 18.0682 90.3149 18.5152 90.027 18.9091C89.7429 19.303 89.3452 19.6136 88.8338 19.8409C88.3224 20.0682 87.7277 20.1818 87.0497 20.1818C86.1596 20.1818 85.4228 19.9886 84.8395 19.6023C84.2562 19.2159 83.8868 18.6515 83.7315 17.9091L85.0043 17.5909C85.1255 18.0606 85.3546 18.4129 85.6918 18.6477C86.0327 18.8826 86.4777 19 87.027 19C87.652 19 88.1482 18.8674 88.5156 18.6023C88.8868 18.3333 89.0724 18.0114 89.0724 17.6364C89.0724 17.3333 88.9664 17.0795 88.7543 16.875C88.5421 16.6667 88.2164 16.5114 87.777 16.4091L86.3224 16.0682C85.5232 15.8788 84.9361 15.5852 84.5611 15.1875C84.1899 14.786 84.0043 14.2841 84.0043 13.6818C84.0043 13.1894 84.1425 12.7538 84.419 12.375C84.6993 11.9962 85.08 11.6989 85.5611 11.483C86.0459 11.267 86.5952 11.1591 87.2088 11.1591C88.0724 11.1591 88.7505 11.3485 89.2429 11.7273C89.7391 12.1061 90.0914 12.6061 90.2997 13.2273ZM96.8864 20.1818C96.0455 20.1818 95.3201 19.9962 94.7102 19.625C94.1042 19.25 93.6364 18.7273 93.3068 18.0568C92.9811 17.3826 92.8182 16.5985 92.8182 15.7045C92.8182 14.8106 92.9811 14.0227 93.3068 13.3409C93.6364 12.6553 94.0947 12.1212 94.6818 11.7386C95.2727 11.3523 95.9621 11.1591 96.75 11.1591C97.2045 11.1591 97.6534 11.2348 98.0966 11.3864C98.5398 11.5379 98.9432 11.7841 99.3068 12.125C99.6705 12.4621 99.9602 12.9091 100.176 13.4659C100.392 14.0227 100.5 14.7083 100.5 15.5227V16.0909H93.7727V14.9318H99.1364C99.1364 14.4394 99.0379 14 98.8409 13.6136C98.6477 13.2273 98.3712 12.9223 98.0114 12.6989C97.6553 12.4754 97.2348 12.3636 96.75 12.3636C96.2159 12.3636 95.7538 12.4962 95.3636 12.7614C94.9773 13.0227 94.6799 13.3636 94.4716 13.7841C94.2633 14.2045 94.1591 14.6553 94.1591 15.1364V15.9091C94.1591 16.5682 94.2727 17.1269 94.5 17.5852C94.7311 18.0398 95.0511 18.3864 95.4602 18.625C95.8693 18.8598 96.3447 18.9773 96.8864 18.9773C97.2386 18.9773 97.5568 18.928 97.8409 18.8295C98.1288 18.7273 98.3769 18.5758 98.5852 18.375C98.7936 18.1705 98.9545 17.9167 99.0682 17.6136L100.364 17.9773C100.227 18.4167 99.9981 18.803 99.6761 19.1364C99.3542 19.4659 98.9564 19.7235 98.483 19.9091C98.0095 20.0909 97.4773 20.1818 96.8864 20.1818Z" fill="#474747"/>
<path d="M0 23.1818H101.318V24.2727H0V23.1818Z" fill="#474747"/>
</svg>
