<svg width="24" height="20" viewBox="0 0 24 20" fill="none" xmlns="http://www.w3.org/2000/svg">
<g id="Group">
<path id="Vector" d="M1.63636 19.0022H5.45456V9.72949L2.95434 5.36365L0 5.63857V17.3659C0 18.2699 0.732281 19.0022 1.63636 19.0022Z" fill="#0085F7"/>
<path id="Vector_2" d="M18.5447 19.0022H22.3629C23.267 19.0022 23.9992 18.2699 23.9992 17.3659V5.63857L21.0492 5.36365L18.5447 9.72949V19.0022H18.5447Z" fill="#00A94B"/>
<path id="Vector_3" d="M18.5453 2.63856L16.3025 6.91839L18.5453 9.72948L23.9999 5.63856V3.45676C23.9999 1.43448 21.6912 0.279483 20.0726 1.49312L18.5453 2.63856Z" fill="#FFBC00"/>
<path id="Vector_4" fill-rule="evenodd" clip-rule="evenodd" d="M5.45407 9.72948L3.31689 5.21494L5.45407 2.63855L11.9995 7.54763L18.5449 2.63855V9.72948L11.9995 14.6386L5.45407 9.72948Z" fill="#FF4131"/>
<path id="Vector_5" d="M0 3.45676V5.63856L5.45456 9.72948V2.63856L3.92728 1.49312C2.30864 0.279483 0 1.43448 0 3.45676H0Z" fill="#E51C19"/>
</g>
</svg>
