<svg width="64" height="64" viewBox="0 0 64 64" fill="none" xmlns="http://www.w3.org/2000/svg">
<g id="pants">
<g id="Group">
<path id="Vector" d="M20.3125 0.149998C19.7875 0.450001 19.7625 0.612499 19.75 2.9125V5.125L13.3625 32.25C9.41247 49.075 6.99997 59.55 7.02497 59.8375C7.04997 60.15 7.16247 60.3625 7.37497 60.525C7.69997 60.7625 18.2875 64 18.7375 64C18.875 64 19.125 63.875 19.3 63.7125C19.525 63.525 21.775 58.3875 27.075 46C31.1875 36.4125 34.575 28.525 34.6125 28.475C34.6875 28.3875 39.375 39.175 39.375 39.4125C39.375 39.4625 38.225 39.5 36.8125 39.5C34.25 39.5 34.2375 39.5 33.9375 39.8125L33.625 40.1125V45.3V50.4875L33.9125 50.8125C34.1625 51.1 34.625 51.2125 39.7875 52.25C43.6875 53.025 45.4625 53.3375 45.6625 53.2625C45.8125 53.2 48.3875 50.95 51.375 48.2625C55.8 44.2875 56.8375 43.2875 56.975 42.9125C57.1 42.5625 57.125 41.8375 57.1 40.25L57.05 38.0625L53.375 21.9375L49.7 5.8125L49.6375 3.2125L49.5625 0.599998L49.2125 0.299999L48.8625 0H34.7125C24.3 0.0125008 20.5 0.0499992 20.3125 0.149998ZM26.125 3.1875V4.25H24H21.875V3.1875V2.125H24H26.125V3.1875ZM31.5 3.1875V4.25H29.875H28.25V3.1875V2.125H29.875H31.5V3.1875ZM35.75 3.1875V4.25H34.6875H33.625V3.1875V2.125H34.6875H35.75V3.1875ZM41.1 3.2125L41.1375 4.25H39.5H37.875V3.1875V2.1125L39.475 2.15L41.0625 2.1875L41.1 3.2125ZM47.5 3.1875V4.25H45.375H43.25V3.1875V2.125H45.375H47.5V3.1875ZM26.125 7.775C26.125 9.4375 25.875 10.1375 25.025 10.9C24.3125 11.5375 23.5125 11.75 21.7875 11.75C20.4875 11.75 20.3625 11.725 20.425 11.525C20.5 11.3 21.625 6.5 21.625 6.425C21.625 6.4 22.6375 6.375 23.875 6.375H26.125V7.775ZM33.625 15.8375V25.3125L25.8625 43.4375C21.5875 53.4 18.0875 61.575 18.075 61.5875C18.0375 61.6375 9.59997 59.125 9.42497 59.0125C9.32497 58.9625 10.9625 51.8 14.575 36.4375C17.4875 24.0625 19.875 13.925 19.875 13.9C19.875 13.8875 20.625 13.875 21.55 13.875C24.225 13.875 25.3125 13.55 26.575 12.35C27.8 11.1875 28.25 9.95 28.25 7.6875V6.375H30.9375H33.625V15.8375ZM37.875 14.6625V22.95L37.225 23.4375C36.8625 23.7 36.375 24.05 36.1625 24.225L35.75 24.525V15.45V6.375H36.8125H37.875V14.6625ZM41.1375 8.125C41.225 10.0625 41.325 10.4625 42 11.4625C42.5625 12.3125 43.2375 12.9 44.1625 13.325C45.1 13.75 45.925 13.875 47.7625 13.875C49.325 13.875 49.375 13.8875 49.4375 14.15C50.875 20.25 54.875 38.425 54.875 38.875V39.5H48.325H41.775L39.075 33.2C37.5875 29.7375 36.375 26.85 36.375 26.7875C36.3875 26.7375 37.1125 26.15 37.9875 25.5C38.875 24.85 39.6875 24.1625 39.8 23.975C39.975 23.6875 40 22.6875 40 15V6.3625L40.5375 6.4L41.0625 6.4375L41.1375 8.125ZM48.275 9C48.6 10.4125 48.8625 11.6125 48.8625 11.675C48.875 11.725 48.125 11.7625 47.225 11.725C45.675 11.6875 45.5125 11.65 44.9 11.325C43.625 10.625 43.25 9.825 43.25 7.8125V6.375L45.4625 6.4L47.6875 6.4375L48.275 9ZM54.875 41.9375C54.875 42.1875 53.9125 43.1125 49.95 46.6875L45.025 51.125L40.6625 50.25C38.275 49.775 36.1875 49.35 36.0375 49.3125L35.75 49.25V45.4375V41.625H45.3125H54.875V41.9375Z" fill="#8F8F8F"/>
</g>
</g>
</svg>
